<?xml version="1.0" encoding="UTF-8" standalone="no"?><!DOCTYPE svg PUBLIC "-//W3C//DTD SVG 1.1//EN" "http://www.w3.org/Graphics/SVG/1.1/DTD/svg11.dtd"><svg width="20" height="20" viewBox="0 0 40 45" version="1.1" xmlns="http://www.w3.org/2000/svg" xmlns:xlink="http://www.w3.org/1999/xlink" xml:space="preserve" xmlns:serif="http://www.serif.com/" style="fill-rule:evenodd;clip-rule:evenodd;stroke-linecap:round;stroke-linejoin:round;"><g><path d="M7.5,6l-3.75,0c-0.796,0 -1.559,0.316 -2.122,0.878c-0.562,0.563 -0.878,1.326 -0.878,2.122l0,29.25c0,0.796 0.316,1.559 0.878,2.122c0.563,0.562 1.326,0.878 2.122,0.878l9.75,0" style="fill:none;stroke:#000;stroke-width:1.5px;"/><path d="M33.75,14.25l0,-5.25c0,-0.796 -0.316,-1.559 -0.878,-2.122c-0.563,-0.562 -1.326,-0.878 -2.122,-0.878l-3.75,0" style="fill:none;stroke:#000;stroke-width:1.5px;"/><path d="M27,6c0,-0.828 -0.672,-1.5 -1.5,-1.5l-16.5,0c-0.828,0 -1.5,0.672 -1.5,1.5l0,3c0,0.828 0.672,1.5 1.5,1.5l16.5,0c0.828,0 1.5,-0.672 1.5,-1.5l0,-3Z" style="fill:none;stroke:#000;stroke-width:1.5px;"/><path d="M23.25,4.5l0,-2.25c-0.002,-0.827 -0.673,-1.498 -1.5,-1.5l-9,0c-0.827,0.002 -1.498,0.673 -1.5,1.5l0,2.25" style="fill:none;stroke:#000;stroke-width:1.5px;"/><path d="M39,15.75c0,-0.828 -0.672,-1.5 -1.5,-1.5l-22.5,0c-0.828,0 -1.5,0.672 -1.5,1.5l0,27c0,0.828 0.672,1.5 1.5,1.5l22.5,0c0.828,0 1.5,-0.672 1.5,-1.5l0,-27Z" style="fill:none;stroke:#000;stroke-width:1.5px;"/><path d="M19.5,23.25l13.5,0" style="fill:none;stroke:#000;stroke-width:1.5px;"/><path d="M19.5,27l13.5,0" style="fill:none;stroke:#000;stroke-width:1.5px;"/><path d="M19.5,30.75l13.5,0" style="fill:none;stroke:#000;stroke-width:1.5px;"/><path d="M19.5,34.5l13.5,0" style="fill:none;stroke:#000;stroke-width:1.5px;"/></g></svg>
